<svg width="1160" height="460" viewBox="0 0 1160 460" fill="none" xmlns="http://www.w3.org/2000/svg">
<path d="M1160 445C1160 453.284 1153.28 460 1145 460H950C900.294 460 860 419.706 860 370C860 364.477 864.477 360 870 360H1145C1153.28 360 1160 366.716 1160 375V445ZM1160 265C1160 273.284 1153.28 280 1145 280H985C976.716 280 970 273.284 970 265V195C970 186.716 976.716 180 985 180H1145C1153.28 180 1160 186.716 1160 195V265ZM1160 85C1160 93.2843 1153.28 100 1145 100H870C864.477 100 860 95.5229 860 90C860 40.2944 900.294 1.9328e-06 950 0H1145C1153.28 0 1160 6.71573 1160 15V85Z" fill="white"/>
<path d="M452.129 332.529C439.798 340.772 445.633 360 460.465 360H685C693.284 360 700 353.284 700 345V275C700 266.716 706.716 260 715 260H785C793.284 260 800 266.716 800 275V445C800 453.284 793.284 460 785 460H235C226.716 460 220 453.284 220 445V368.016C220 363.007 222.5 358.329 226.664 355.545L567.871 127.471C580.202 119.228 574.367 100 559.535 100H375C366.716 100 360 93.2843 360 85V15C360 6.71573 366.716 0 375 0H785C793.284 0 800 6.71573 800 15V91.984C800 96.9928 797.5 101.671 793.336 104.455L452.129 332.529Z" fill="white"/>
<path d="M220 265C220 273.284 213.284 280 205 280H115C106.716 280 100 286.716 100 295V445C100 453.284 93.2843 460 85 460H15C6.71573 460 0 453.284 0 445V195C0 186.716 6.71573 180 15 180H205C213.284 180 220 186.716 220 195V265ZM210 0C259.706 2.12247e-06 300 40.2944 300 90C300 95.5229 295.523 100 290 100H15C6.71573 100 0 93.2843 0 85V15C0 6.71573 6.71573 0 15 0H210Z" fill="white"/>
</svg>
